# This file uses centimeters as units for non-parametric coordinates.

v -0.500000 -0.500000 0.500000
v 0.500000 -0.500000 0.500000
v -0.500000 0.500000 0.500000
v 0.500000 0.500000 0.500000
v -0.500000 0.500000 -0.500000
v 0.500000 0.500000 -0.500000
v -0.500000 -0.500000 -0.500000
v 0.500000 -0.500000 -0.500000
v -0.500000 0.460756 0.500000
v 0.500000 0.460756 0.500000
v 0.500000 0.460756 -0.500000
v -0.500000 0.460756 -0.500000
v -0.500000 -0.464687 0.500000
v 0.500000 -0.464687 0.500000
v 0.500000 -0.464686 -0.500000
v -0.500000 -0.464686 -0.500000
v 0.464756 -0.500000 0.500000
v 0.464756 -0.500000 -0.500000
v 0.464756 -0.464686 -0.500000
v 0.464756 0.460756 -0.500000
v 0.464756 0.500000 -0.500000
v 0.464756 0.500000 0.500000
v 0.464756 0.460756 0.500000
v 0.464756 -0.464687 0.500000
v -0.447863 -0.500000 0.500000
v -0.447863 -0.500000 -0.500000
v -0.447863 -0.464686 -0.500000
v -0.447863 0.460756 -0.500000
v -0.447863 0.500000 -0.500000
v -0.447863 0.500000 0.500000
v -0.447863 0.460756 0.500000
v -0.447863 -0.464687 0.500000
v -0.500000 0.500000 0.461817
v -0.447863 0.500000 0.461817
v 0.464756 0.500000 0.461817
v 0.500000 0.500000 0.461817
v 0.500000 0.460756 0.461817
v 0.500000 -0.464687 0.461817
v 0.500000 -0.500000 0.461817
v 0.464756 -0.500000 0.461817
v -0.447863 -0.500000 0.461817
v -0.500000 -0.500000 0.461817
v -0.500000 -0.464687 0.461817
v -0.500000 0.460756 0.461817
v -0.500000 -0.500000 -0.449955
v -0.447863 -0.500000 -0.449956
v 0.464756 -0.500000 -0.449956
v 0.500000 -0.500000 -0.449955
v 0.500000 -0.464686 -0.449956
v 0.500000 0.460756 -0.449956
v 0.500000 0.500000 -0.449956
v 0.464756 0.500000 -0.449955
v -0.447863 0.500000 -0.449955
v -0.500000 0.500000 -0.449956
v -0.500000 0.460756 -0.449955
v -0.500000 -0.464686 -0.449955
vt 0.375000 0.000000
vt 0.625000 0.000000
vt 0.375000 0.250000
vt 0.625000 0.250000
vt 0.375000 0.500000
vt 0.625000 0.500000
vt 0.375000 0.750000
vt 0.625000 0.750000
vt 0.375000 1.000000
vt 0.625000 1.000000
vt 0.875000 0.000000
vt 0.875000 0.250000
vt 0.125000 0.000000
vt 0.125000 0.250000
vt 0.375000 0.240189
vt 0.625000 0.240189
vt 0.625000 0.509811
vt 0.875000 0.240189
vt 0.125000 0.240189
vt 0.375000 0.509811
vt 0.375000 0.008828
vt 0.625000 0.008828
vt 0.625000 0.741172
vt 0.875000 0.008828
vt 0.125000 0.008828
vt 0.375000 0.741172
vt 0.616189 0.000000
vt 0.616189 1.000000
vt 0.616189 0.750000
vt 0.616189 0.741172
vt 0.616189 0.509811
vt 0.616189 0.500000
vt 0.616189 0.250000
vt 0.616189 0.240189
vt 0.616189 0.008828
vt 0.388034 0.000000
vt 0.388034 1.000000
vt 0.388034 0.750000
vt 0.388034 0.741172
vt 0.388034 0.509811
vt 0.388034 0.500000
vt 0.388034 0.250000
vt 0.388034 0.240189
vt 0.388034 0.008828
vt 0.365454 0.250000
vt 0.375000 0.259546
vt 0.388034 0.259546
vt 0.616189 0.259546
vt 0.625000 0.259546
vt 0.634546 0.250000
vt 0.634546 0.240189
vt 0.634546 0.008828
vt 0.625000 0.990454
vt 0.634546 0.000000
vt 0.616189 0.990454
vt 0.388034 0.990454
vt 0.365454 0.000000
vt 0.375000 0.990454
vt 0.365454 0.008828
vt 0.365454 0.240189
vt 0.137511 0.000000
vt 0.375000 0.762511
vt 0.388034 0.762511
vt 0.616189 0.762511
vt 0.625000 0.762511
vt 0.862489 0.000000
vt 0.862489 0.008828
vt 0.862489 0.240189
vt 0.625000 0.487489
vt 0.862489 0.250000
vt 0.616189 0.487489
vt 0.388034 0.487489
vt 0.137511 0.250000
vt 0.375000 0.487489
vt 0.137511 0.240189
vt 0.137511 0.008828
vn 0.000000 0.697352 0.716729
vn 0.000000 0.000000 1.000000
vn 0.734819 0.000000 0.678263
vn 0.613309 0.550797 0.566104
vn 0.744007 0.668172 0.000000
vn 0.000000 1.000000 0.000000
vn 0.000000 1.000000 0.000000
vn 0.744007 0.668172 0.000000
vn 0.000000 0.000000 -1.000000
vn 0.000000 0.786906 -0.617073
vn 0.659019 0.591851 -0.464119
vn 0.817592 0.000000 -0.575798
vn 0.707801 -0.706412 0.000000
vn 0.000000 -1.000000 0.000000
vn 0.000000 -1.000000 0.000000
vn 0.707801 -0.706412 0.000000
vn 1.000000 0.000000 0.000000
vn 1.000000 0.000000 0.000000
vn -0.601380 0.798963 0.000000
vn -1.000000 0.000000 0.000000
vn -1.000000 0.000000 0.000000
vn -0.601381 0.798963 0.000000
vn 0.000000 0.000000 1.000000
vn 0.734819 0.000000 0.678263
vn 1.000000 -0.000000 0.000000
vn 1.000000 -0.000000 0.000000
vn 0.000000 0.000000 -1.000000
vn 0.817592 0.000000 -0.575798
vn -1.000000 0.000000 0.000000
vn -1.000000 0.000000 0.000000
vn 0.000000 -0.734157 0.678980
vn 0.592549 -0.591390 0.546941
vn 0.000000 -0.817060 -0.576552
vn 0.633464 -0.632217 -0.446122
vn -0.560787 -0.827960 0.000000
vn -0.560787 -0.827960 0.000000
vn 0.000000 -1.000000 0.000000
vn 0.000000 -1.000000 0.000000
vn 0.000000 -0.817059 -0.576554
vn 0.000000 0.000000 -1.000000
vn 0.000000 0.000000 -1.000000
vn 0.000000 0.786905 -0.617074
vn 0.000000 1.000000 0.000000
vn 0.000000 1.000000 0.000000
vn 0.000000 0.697352 0.716729
vn 0.000000 0.000000 1.000000
vn 0.000000 0.000000 1.000000
vn 0.000000 -0.734157 0.678980
vn -0.692479 0.000000 -0.721438
vn -0.484208 -0.714889 -0.504457
vn -0.692479 0.000000 -0.721438
vn -0.509618 0.677053 -0.530931
vn -0.590850 0.000000 0.806782
vn -0.464764 0.617459 0.634618
vn -0.590849 0.000000 0.806782
vn -0.445245 -0.657372 0.607963
s 1
f 22/33/1 23/34/2 10/16/3 4/4/4
f 51/69/5 52/71/6 35/48/7 36/49/8
f 20/31/9 21/32/10 6/6/11 11/17/12
f 39/53/13 40/55/14 47/64/15 48/65/16
f 36/50/8 37/51/17 50/68/18 51/70/5
f 54/73/19 55/75/20 44/60/21 33/45/22
f 23/34/2 24/35/23 14/22/24 10/16/3
f 37/51/17 38/52/25 49/67/26 50/68/18
f 19/30/27 20/31/9 11/17/12 15/23/28
f 55/75/20 56/76/29 43/59/30 44/60/21
f 24/35/23 17/27/31 2/2/32 14/22/24
f 38/52/25 39/54/13 48/66/16 49/67/26
f 18/29/33 19/30/27 15/23/28 8/8/34
f 56/76/29 45/61/35 42/57/36 43/59/30
f 40/55/14 41/56/37 46/63/38 47/64/15
f 26/38/39 27/39/40 19/30/27 18/29/33
f 27/39/40 28/40/41 20/31/9 19/30/27
f 28/40/41 29/41/42 21/32/10 20/31/9
f 52/71/6 53/72/43 34/47/44 35/48/7
f 30/42/45 31/43/46 23/34/2 22/33/1
f 31/43/46 32/44/47 24/35/23 23/34/2
f 32/44/47 25/36/48 17/27/31 24/35/23
f 45/62/35 46/63/38 41/56/37 42/58/36
f 16/26/49 27/39/40 26/38/39 7/7/50
f 12/20/51 28/40/41 27/39/40 16/26/49
f 5/5/52 29/41/42 28/40/41 12/20/51
f 33/46/22 34/47/44 53/72/43 54/74/19
f 9/15/53 31/43/46 30/42/45 3/3/54
f 13/21/55 32/44/47 31/43/46 9/15/53
f 1/1/56 25/36/48 32/44/47 13/21/55
f 3/3/54 30/42/45 34/47/44 33/46/22
f 35/48/7 34/47/44 30/42/45 22/33/1
f 36/49/8 35/48/7 22/33/1 4/4/4
f 10/16/3 37/51/17 36/50/8 4/4/4
f 14/22/24 38/52/25 37/51/17 10/16/3
f 2/2/32 39/54/13 38/52/25 14/22/24
f 17/28/31 40/55/14 39/53/13 2/10/32
f 25/37/48 41/56/37 40/55/14 17/28/31
f 42/58/36 41/56/37 25/37/48 1/9/56
f 43/59/30 42/57/36 1/1/56 13/21/55
f 44/60/21 43/59/30 13/21/55 9/15/53
f 33/45/22 44/60/21 9/15/53 3/3/54
f 7/7/50 26/38/39 46/63/38 45/62/35
f 47/64/15 46/63/38 26/38/39 18/29/33
f 48/65/16 47/64/15 18/29/33 8/8/34
f 49/67/26 48/66/16 8/11/34 15/24/28
f 50/68/18 49/67/26 15/24/28 11/18/12
f 51/70/5 50/68/18 11/18/12 6/12/11
f 21/32/10 52/71/6 51/69/5 6/6/11
f 29/41/42 53/72/43 52/71/6 21/32/10
f 54/74/19 53/72/43 29/41/42 5/5/52
f 12/19/51 55/75/20 54/73/19 5/14/52
f 16/25/49 56/76/29 55/75/20 12/19/51
f 7/13/50 45/61/35 56/76/29 16/25/49
